<?xml version="1.0" encoding="UTF-8" standalone="no"?>
<svg
   xmlns:dc="http://purl.org/dc/elements/1.1/"
   xmlns:cc="http://creativecommons.org/ns#"
   xmlns:rdf="http://www.w3.org/1999/02/22-rdf-syntax-ns#"
   xmlns:svg="http://www.w3.org/2000/svg"
   xmlns="http://www.w3.org/2000/svg"
   xmlns:sodipodi="http://sodipodi.sourceforge.net/DTD/sodipodi-0.dtd"
   xmlns:inkscape="http://www.inkscape.org/namespaces/inkscape"
   viewBox="0 0 283.46456 151.1811"
   version="1.1"
   id="svg4340"
   sodipodi:docname="pierre_droite.svg"
   width="75mm"
   height="40mm"
   inkscape:version="0.92.5 (2060ec1f9f, 2020-04-08)">
  <metadata
     id="metadata4344">
    <rdf:RDF>
      <cc:Work
         rdf:about="">
        <dc:format>image/svg+xml</dc:format>
        <dc:type
           rdf:resource="http://purl.org/dc/dcmitype/StillImage" />
        <dc:title></dc:title>
      </cc:Work>
    </rdf:RDF>
  </metadata>
  <sodipodi:namedview
     pagecolor="#ffffff"
     bordercolor="#666666"
     borderopacity="1"
     objecttolerance="10"
     gridtolerance="10"
     guidetolerance="10"
     inkscape:pageopacity="0"
     inkscape:pageshadow="2"
     inkscape:window-width="1280"
     inkscape:window-height="959"
     id="namedview4342"
     showgrid="false"
     units="mm"
     width="75mm"
     inkscape:zoom="1.9806084"
     inkscape:cx="56.415457"
     inkscape:cy="42.806034"
     inkscape:window-x="0"
     inkscape:window-y="40"
     inkscape:window-maximized="1"
     inkscape:current-layer="g4308" />
  <defs
     id="defs4252">
    <marker
       id="a"
       orient="auto">
      <path
         transform="scale(-0.6)"
         d="M 8.7186,4.0337 -2.2074,0.016 8.7186,-4.0017 c -1.7455,2.3721 -1.7354,5.6174 0,8.0354 z"
         id="path4249"
         inkscape:connector-curvature="0"
         style="fill-rule:evenodd" />
    </marker>
  </defs>
  <g
     transform="matrix(0.77244,0,0,0.77244,149.67,-477.43011)"
     id="g4338">
    <g
       transform="matrix(-0.33587,-0.48446,0.48446,-0.33587,255.64,813.8)"
       id="g4308"
       style="fill-rule:evenodd">
      <path
         d="m 231.35875,-173.89298 c 3.36645,-3.98579 -2.70339,-9.54423 3.41948,-13.07042 2.81269,-1.13756 0.99983,2.02626 3.01577,4.22266 1.93528,-5.05025 3.51845,-10.15992 -1.00411,-16.28764 -4.31178,5.89347 -5.76937,12.26641 -10.4578,18.09709 z"
         id="path4290"
         inkscape:connector-curvature="0" />
      <path
         d="m 245.84009,-186.35632 c -6.61915,-15.57077 10.78902,-27.13461 13.07329,-41.22158 -8.81709,7.90436 -11.62503,19.62868 -18.90394,24.12918 5.35255,6.26612 0.4781,10.8263 5.83065,17.0924 z"
         id="path4292"
         inkscape:connector-curvature="0" />
      <path
         d="m 418.57956,-337.36088 c 8.17108,-5.68083 2.40586,-24.38673 -0.19743,-35.9932 -2.82466,11.51508 3.82476,24.61268 0.19743,35.9932 z"
         id="path4294"
         inkscape:connector-curvature="0" />
      <path
         d="m 501.03176,-460.01174 c 1.22177,-5.42298 -9.15166,-4.18692 -13.47281,-1.00621 4.09512,2.71083 9.2328,-0.83555 13.47281,1.00621 z"
         id="path4296"
         inkscape:connector-curvature="0" />
      <path
         d="m 426.83048,-453.78815 c 1.71772,-6.00699 -7.96778,-6.26129 -10.85807,-9.25009 -1.71773,6.00698 7.96533,6.26302 10.85807,9.25009 z"
         id="path4298"
         inkscape:connector-curvature="0" />
      <path
         d="m 217.2848,-193.59929 c 6.32495,-9.04179 27.79242,-30.16138 35.59532,-42.42638 23.32162,-36.65539 8.46397,-88.1034 71.19541,-114.61633 -2.12815,8.73936 -6.32003,17.1339 -9.25283,25.73766 10.13144,-8.5641 10.04294,-21.9334 18.10054,-34.18246 4.46819,-6.79286 13.81954,-12.43676 18.50098,-21.71672 5.88211,-11.66123 5.99747,-28.0762 10.66003,-41.62397 9.66951,-28.09478 14.39542,-48.70819 48.06185,-42.8274 -7.26384,-3.53953 -14.89518,-4.86644 -23.52607,-0.20281 13.26161,-13.16636 36.22154,-11.18047 44.63968,0.003 10.21017,13.56156 2.33367,46.96118 3.61601,67.56489 2.30154,37.03293 12.9211,57.97624 16.68368,85.86395 6.64083,-1.00463 -2.66221,-15.29023 2.21312,-20.71123 9.1408,-0.28815 16.01712,13.0222 25.73788,9.25144 -6.40691,-6.19387 -13.1918,-10.12955 -19.70419,-15.68651 2.65351,-5.96135 6.04916,-8.53147 10.25553,-9.45024 19.46129,16.78654 37.99493,36.72029 58.91546,25.94496 -17.99722,-1.70109 -56.72695,-16.04283 -50.87116,-44.44302 18.05634,0.78763 33.85937,15.08958 52.28192,13.67655 -1.00788,-6.65571 -5.99291,-5.34918 4.02174,-9.24875 -8.0846,-1.0892 -17.17957,3.8813 -24.93389,0.80266 0.30772,-3.75025 10.23448,-2.3116 15.08127,-8.64491 -15.73168,5.11198 -30.61497,5.12295 -43.43312,-7.24329 -5.60472,-11.06528 9.46461,-23.70155 2.01353,-41.82402 -2.18602,-5.31662 -8.85053,-8.50387 -11.46091,-13.07258 -9.94904,-17.40631 1.61455,-48.33089 23.32808,-35.7912 -1.10605,-6.04123 -4.18107,-5.45858 0.20145,-8.64626 6.89553,-4.52285 18.32679,-1.81037 26.14085,6.83898 29.46891,32.61618 70.73885,108.197 71.57549,135.93665 0.30343,10.08962 -4.93773,22.32654 -13.87707,31.16611 -41.94666,41.48422 -107.76152,51.5786 -152.82997,83.64167 -55.77456,39.67972 -81.04676,105.00362 -122.47151,146.98635 l 3.01576,4.222667 c 18.54949,-23.839166 35.93239,-45.307897 53.493,-67.962807 16.23806,-20.94848 31.46102,-46.63051 54.49787,-66.55579 26.30929,-22.75394 54.27837,-33.38489 82.04577,-45.84164 40.97376,-18.38264 109.53109,-46.98449 103.15958,-90.67973 -3.19418,-21.93684 -21.38502,-48.76349 -31.96723,-68.57221 -13.25405,-24.81278 -26.86585,-55.851 -44.03302,-70.58329 -5.76345,-4.94533 -17.0905,-5.04967 -29.15602,-11.06083 -11.39154,-5.67654 -19.39859,-12.20102 -27.74878,-12.06708 -5.49851,0.0868 -10.62792,6.71782 -19.90724,7.84097 -9.10656,1.10176 -17.32327,-6.1946 -29.35887,-2.4148 -8.43407,2.64906 -17.53973,11.14905 -27.34794,15.28089 -11.57743,4.87558 -20.78486,3.7834 -27.54943,9.0471 -10.41679,8.10432 -24.97215,32.25891 -30.56808,49.46551 -2.73866,8.41963 0.70396,17.95449 -2.013,26.94479 -9.99731,33.07468 -57.12119,62.47311 -73.40425,90.68672 -12.1586,21.07023 -6.01404,48.00023 -15.68938,64.34527 -7.57369,12.79069 -25.83758,24.67567 -32.98011,34.17972 l 9.04786,12.6688 z M 454.988,-488.77914 c 7.13378,3.26622 8.08171,-2.61246 14.88062,7.7e-4 -0.66659,-4.80305 -8.3022,-2.89256 -5.02665,-7.03832 6.98397,2.73299 14.50976,2.22072 20.91191,8.4475 -8.72265,7.22617 -17.25223,14.48527 -24.73536,21.91741 -7.05765,-4.86648 -16.99526,-17.68508 -6.03052,-23.32736 z"
         id="path4300"
         inkscape:connector-curvature="0" />
      <path
         d="m 404.09792,-310.01111 c 4.22966,3.52038 2.297,-14.9501 7.44127,-7.43911 1.78866,-7.96727 4.11623,-15.84754 -0.80322,-24.93471 -3.63926,10.55341 -2.99879,21.82041 -6.63805,32.37382 z"
         id="path4302"
         inkscape:connector-curvature="0" />
      <path
         d="m 345.98479,-296.14433 c 2.61666,1.15172 5.13671,-8.15385 4.42494,-11.66261 2.52854,-0.8781 0.73032,2.19785 3.01576,4.22267 2.55366,-9.49424 3.94673,-19.18199 7.24112,-28.55272 -7.59862,6.60282 -13.52449,24.18883 -14.68182,35.99266 z"
         id="path4304"
         inkscape:connector-curvature="0" />
      <path
         d="m 395.25672,-301.57096 c -3.41928,6.45663 -11.98455,12.05524 -9.45155,19.50433 8.16834,-1.22308 12.45596,-12.42755 9.45155,-19.50433 z"
         id="path4306"
         inkscape:connector-curvature="0" />
    </g>
  </g>
</svg>
