<?xml version="1.0" encoding="UTF-8" standalone="no"?>
<svg
   xmlns:dc="http://purl.org/dc/elements/1.1/"
   xmlns:cc="http://creativecommons.org/ns#"
   xmlns:rdf="http://www.w3.org/1999/02/22-rdf-syntax-ns#"
   xmlns:svg="http://www.w3.org/2000/svg"
   xmlns="http://www.w3.org/2000/svg"
   xmlns:sodipodi="http://sodipodi.sourceforge.net/DTD/sodipodi-0.dtd"
   xmlns:inkscape="http://www.inkscape.org/namespaces/inkscape"
   viewBox="0 0 283.46456 151.1811"
   version="1.1"
   id="svg4340"
   sodipodi:docname="fingers-149295.svg"
   width="75mm"
   height="40mm"
   inkscape:version="0.92.5 (2060ec1f9f, 2020-04-08)">
  <metadata
     id="metadata4344">
    <rdf:RDF>
      <cc:Work
         rdf:about="">
        <dc:format>image/svg+xml</dc:format>
        <dc:type
           rdf:resource="http://purl.org/dc/dcmitype/StillImage" />
        <dc:title></dc:title>
      </cc:Work>
    </rdf:RDF>
  </metadata>
  <sodipodi:namedview
     pagecolor="#ffffff"
     bordercolor="#666666"
     borderopacity="1"
     objecttolerance="10"
     gridtolerance="10"
     guidetolerance="10"
     inkscape:pageopacity="0"
     inkscape:pageshadow="2"
     inkscape:window-width="1280"
     inkscape:window-height="959"
     id="namedview4342"
     showgrid="false"
     units="mm"
     width="75mm"
     inkscape:zoom="1.9806084"
     inkscape:cx="56.415457"
     inkscape:cy="42.806034"
     inkscape:window-x="0"
     inkscape:window-y="40"
     inkscape:window-maximized="1"
     inkscape:current-layer="g4308" />
  <defs
     id="defs4252">
    <marker
       id="a"
       orient="auto">
      <path
         transform="scale(-0.6)"
         d="M 8.7186,4.0337 -2.2074,0.016 8.7186,-4.0017 c -1.7455,2.3721 -1.7354,5.6174 0,8.0354 z"
         id="path4249"
         inkscape:connector-curvature="0"
         style="fill-rule:evenodd" />
    </marker>
  </defs>
  <g
     transform="matrix(0.77244,0,0,0.77244,149.67,-477.43011)"
     id="g4338">
    <g
       transform="matrix(-0.33587,-0.48446,0.48446,-0.33587,255.64,813.8)"
       id="g4308"
       style="fill-rule:evenodd">
      <path
         d="m 444.05731,-480.69008 c -2.55174,4.55062 -9.88608,0.8161 -11.04058,7.78681 -0.0787,3.03299 2.24823,0.22557 5.01219,1.34302 -4.05056,3.58375 -8.28028,6.8586 -15.60501,4.77275 4.00663,-6.10503 9.4634,-9.70539 13.27911,-16.14111 z"
         id="path4290"
         inkscape:connector-curvature="0" />
      <path
         d="m 437.46531,-462.75717 c -16.90322,-0.73699 -21.62626,19.62129 -34.01698,26.70159 4.30947,-11.02944 14.30397,-17.7714 15.96538,-26.16645 7.74546,2.81457 10.30615,-3.34971 18.0516,-0.53514 z"
         id="path4292"
         inkscape:connector-curvature="0" />
      <path
         d="m 356.64497,-248.02623 c -2.4538,9.64454 -21.99344,10.80691 -33.77562,12.44011 9.79269,-6.68423 24.39049,-5.0514 33.77562,-12.44011 z"
         id="path4294"
         inkscape:connector-curvature="0" />
      <path
         d="m 270.70769,-127.79154 c -4.64988,3.04632 -7.13095,-7.1016 -5.66801,-12.26387 3.975,2.88408 2.45604,8.93927 5.66801,12.26387 z"
         id="path4296"
         inkscape:connector-curvature="0" />
      <path
         d="m 250.50898,-199.46144 c -5.02282,3.7156 -8.65826,-5.26534 -12.47097,-6.92364 5.02282,-3.71561 8.65903,5.26243 12.47097,6.92364 z"
         id="path4298"
         inkscape:connector-curvature="0" />
      <path
         d="m 420.66645,-486.95765 c -6.24878,9.09459 -18.4966,36.60605 -27.2454,48.21527 -26.14619,34.69715 -79.53694,38.82941 -82.36166,106.87491 7.43763,-5.05836 13.82848,-11.92838 20.85689,-17.69271 -4.46627,12.49169 -17.0172,17.09824 -25.66173,28.94038 -4.79401,6.56698 -6.79924,17.30384 -13.84754,24.9429 -8.85712,9.59868 -24.1887,15.46444 -35.24028,24.58279 -22.9181,18.90969 -40.56418,30.56572 -23.24817,60.03041 -5.86252,-5.56081 -9.78189,-12.24187 -8.44194,-21.96021 -7.67819,17.03727 2.23496,37.84188 15.66031,41.80258 16.28125,4.80461 44.79607,-14.28673 64.54052,-20.31283 35.48734,-10.83437 58.82494,-8.23561 86.26058,-14.49399 1.38854,6.57129 -15.25257,2.87014 -18.61907,9.33719 2.93639,8.66111 17.81301,10.4318 17.69148,20.85759 -8.04764,-3.82729 -14.11313,-8.80062 -21.60132,-12.95009 -4.65185,4.57593 -5.86762,8.65734 -5.25259,12.91872 22.54626,12.33677 47.7144,22.70091 44.96177,46.07182 -7.90573,-16.2571 -34.92113,-47.49563 -59.46294,-32.05022 7.07104,16.63287 26.0074,26.41529 31.14605,44.16301 -6.58637,1.39071 -7.1114,-3.73587 -7.25046,7.01031 -3.85576,-7.1889 -2.39122,-17.44947 -7.99417,-23.63126 -3.40404,1.60361 1.42512,10.39505 -2.80574,17.15538 -0.73086,-16.52525 -5.94106,-30.46679 -22.01771,-38.13295 -12.32817,-1.36736 -18.87587,17.17685 -38.46047,16.55582 -5.7456,-0.18228 -11.068,-5.30539 -16.26205,-6.1474 -19.79014,-3.21149 -44.69388,18.46454 -25.33465,34.40007 -6.04536,1.08325 -6.57832,-2.00077 -8.02626,3.22142 -1.81681,8.04386 4.73297,17.79741 15.57364,22.08115 40.88045,16.15614 126.13513,28.29324 152.4058,19.34675 9.55501,-3.25489 19.17607,-12.45528 24.31845,-23.92723 24.1353,-53.83262 10.50308,-119.00665 24.7208,-172.45815 17.59516,-66.14901 69.90423,-112.72859 94.68943,-166.24731 l 5.01219,1.34301 c -15.81812,25.73279 -29.82561,49.54165 -44.88157,73.933 -13.92185,22.55428 -32.63257,45.81829 -43.21148,74.3805 -12.08002,32.61892 -12.22508,62.53991 -14.15069,92.91245 -2.84272,44.8184 -5.58016,119.05236 -48.7341,128.41222 -21.66348,4.70334 -53.16633,-2.92202 -75.42833,-5.88377 -27.88531,-3.70862 -61.726,-5.56861 -81.54384,-16.47756 -6.65272,-3.66265 -10.72351,-14.23344 -20.58486,-23.4239 -9.31159,-8.67667 -18.23009,-13.88647 -21.03358,-21.75311 -1.84736,-5.17962 2.56315,-12.30903 0.36012,-21.39274 -2.16246,-8.91443 -11.87735,-14.04982 -12.55931,-26.64654 -0.47758,-8.8274 4.28846,-20.336 4.71745,-30.97033 0.5049,-12.55202 -3.74749,-20.79137 -1.19096,-28.97245 3.93561,-12.59764 21.4501,-34.7007 35.60065,-45.97649 6.92408,-5.51793 17.06068,-5.63849 24.52678,-11.33627 27.46663,-20.96343 38.46804,-75.40511 59.17765,-100.54985 15.46678,-18.77671 42.84105,-22.46852 54.75389,-37.26234 9.32148,-11.57896 14.0451,-32.85124 20.43999,-42.87362 l 15.03753,4.02929 z m -193.04876,326.1382 c 5.56095,5.53488 0.38826,8.48459 5.22025,13.93492 -4.7317,1.06048 -5.62087,-6.76013 -8.35429,-2.23852 5.00905,5.58162 7.16908,12.80894 15.24586,16.62023 3.7075,-10.70312 7.51355,-21.23698 11.84871,-30.85157 -7.03284,-4.90227 -22.52273,-9.71224 -23.96053,2.53494 z"
         id="path4300"
         inkscape:connector-curvature="0" />
      <path
         d="m 377.17749,-271.181 c 4.78032,2.72612 -13.19455,7.39497 -4.35636,9.57784 -6.83368,4.46962 -13.39686,9.41339 -23.63223,7.99392 8.6064,-7.10976 19.3822,-10.462 27.98859,-17.57176 z"
         id="path4302"
         inkscape:connector-curvature="0" />
      <path
         d="m 369.77946,-330.46584 c 1.99637,2.04643 -5.83404,7.6704 -9.36953,8.23458 0.0646,2.6759 2.31437,-0.087 5.01219,1.34301 -7.9953,5.72162 -16.57891,10.42426 -24.19873,16.79622 3.51801,-9.43185 17.90814,-21.14969 28.55607,-26.37381 z"
         id="path4304"
         inkscape:connector-curvature="0" />
      <path
         d="m 381.98026,-282.42095 c 4.84706,-5.46676 7.0856,-15.45161 14.94989,-15.69239 1.71976,8.07837 -7.26891,16.02366 -14.94989,15.69239 z"
         id="path4306"
         inkscape:connector-curvature="0" />
    </g>
  </g>
</svg>
